<svg xmlns="http://www.w3.org/2000/svg" width="40" height="40" viewBox="0 0 40 40">
  <g fill="none" fill-rule="evenodd">
    <path fill="#EEEEEF" fill-rule="nonzero" d="M29.07 19C31.5724301 25.4583852 28.9420987 32.773861 22.9 36.16 26.1687885 38.5242143 30.5750062 38.5634495 33.8853772 36.2578193 37.1957483 33.9521891 38.6866533 29.805685 37.6024324 25.919948 36.5182114 22.034211 33.0958661 19.2586306 29.07 19L29.07 19zM4.93999996 15.45C7.58513951 12.0203015 11.6687726 10.008023 16 9.99999998 16.33 9.99999998 16.65 9.99999998 17 10.05 17.0102345 9.86680947 17.0102345 9.68319047 17 9.49999997 17.0021234 5.98188499 14.5585629 2.93513088 11.1239036 2.17338744 7.68924427 1.411644 4.18672677 3.1396688 2.70130442 6.32881571 1.21588207 9.51796261 2.1468382 13.310985 4.93999996 15.45L4.93999996 15.45z"/>
    <path fill="#2B273C" fill-rule="nonzero" d="M26.35,18 C29.3954161,23.2197016 28.0842072,29.8896702 23.2895534,33.5681398 C18.4948995,37.2466095 11.712911,36.7857608 7.45995175,32.4924891 C3.20699248,28.1992174 2.81014392,21.4131832 6.53368143,16.6534445 C10.2572189,11.8937058 16.9392603,10.6454781 22.13,13.74 L23.58,12.29 C17.5733704,8.41576127 9.61278919,9.68842626 5.11343456,15.2422657 C0.614079928,20.7961052 1.02091992,28.8475033 6.057202,33.9195037 C11.0934841,38.991504 19.1418059,39.4552335 24.7273038,34.9952405 C30.3128018,30.5352475 31.6416928,22.5838591 27.81,16.55 L26.35,18 Z"/>
    <path fill="#F43939" fill-rule="nonzero" d="M22.61,21.71 C23.6062682,24.5877925 22.6276307,27.7795185 20.1894852,29.6042613 C17.7513397,31.4290041 14.413178,31.4680319 11.9330371,29.7007908 C9.45289623,27.9335497 8.39990488,24.7655762 9.32861911,21.865278 C10.2573333,18.9649798 12.9546371,16.9979009 16,16.9999954 C16.8188285,17.0036678 17.630833,17.1491519 18.4,17.43 L19.92,15.91 C18.7000681,15.3110218 17.359047,14.9997133 16,14.9999954 C11.9968871,14.9959577 8.47226386,17.6364383 7.35110198,21.4793441 C6.2299401,25.3222498 7.7817587,29.4437746 11.1590326,31.5929488 C14.5363064,33.7421231 18.9271637,33.4023013 21.9335392,30.7590769 C24.9399147,28.1158525 25.8390978,23.8046373 24.14,20.18 L22.61,21.71 Z"/>
    <circle cx="16" cy="24" r="3.5" fill="#F43939" fill-rule="nonzero"/>
    <path fill="#2B273C" fill-rule="nonzero" d="M38.06,8.99999997 C37.9530458,8.64760376 37.6610601,8.38251149 37.3,8.30999997 L33.83,7.61999997 L35.66,5.78999996 C35.9136586,5.5363414 36.0127236,5.16662598 35.9198781,4.82012193 C35.8270326,4.47361788 35.5563821,4.2029674 35.2098781,4.11012192 C34.863374,4.01727644 34.4936586,4.11634139 34.24,4.36999996 L32.41,6.23999997 L31.72,2.76999996 C31.6457573,2.39739988 31.3667848,2.09905423 31,1.99999995 C30.6460863,1.89188436 30.2613989,1.98805618 30,2.24999996 L25,7.24999997 C24.7658837,7.48640372 24.6646756,7.82376402 24.73,8.14999997 L25.73,12.93 L15.34,23.31 C15.1506873,23.4977666 15.0442017,23.7533625 15.0442017,24.02 C15.0442017,24.2866375 15.1506873,24.5422334 15.34,24.73 C15.5277666,24.9193127 15.7833625,25.0257983 16.05,25.0257983 C16.3166375,25.0257983 16.5722334,24.9193127 16.76,24.73 L27.18,14.3 L31.96,15.3 L32.15,15.3 C32.415803,15.3015367 32.6712812,15.1971865 32.86,15.01 L37.86,10.01 C38.1081785,9.73615589 38.1850889,9.34775837 38.06,8.99999997 Z M26.87,8.19999997 L30.12,4.99999996 L30.71,7.99999996 L27.46,11.25 L26.87,8.19999997 Z M31.82,13.15 L28.88,12.56 L32.13,9.30999997 L35.07,9.89999997 L31.82,13.15 Z"/>
  </g>
</svg>
