<svg id="Layer_2" data-name="Layer 2" xmlns="http://www.w3.org/2000/svg" width="40" height="40" viewBox="0 0 40 40">
  <defs>
    <style>
      .cls-1 {
        fill: #e9e9e9;
      }

      .cls-2 {
        fill: #2b273c;
      }

      .cls-3 {
        fill: #ef3c3c;
      }
    </style>
  </defs>
  <path class="cls-1" d="M36,11V2H26V5H22v6h5.04388a3,3,0,0,1,2.88459,2.17584L32.30682,21.5h-24L8.73541,20H5.70831a1.70832,1.70832,0,0,1,0-3.41663H7.23877L9,18.5v.57385l1.68512-5.898A3.00005,3.00005,0,0,1,13.5697,11H14V6H4v8H2V36H7V32l6-1v5H26.98724L27,31h6l-.01276,5H38V11ZM10.5,28A2.5,2.5,0,1,1,13,25.5,2.5,2.5,0,0,1,10.5,28Zm20,0A2.5,2.5,0,1,1,33,25.5,2.5,2.5,0,0,1,30.5,28Zm4.313-8H32l-.4787-1.5,1.76123-1.91663H34.813A1.70832,1.70832,0,0,1,34.813,20Z"/>
  <path class="cls-2" d="M31.9873,38.01562h-4a1.99887,1.99887,0,0,1-2-2.00683L26,30.99707l2,.00586-.0127,5.01269h4L32,30.99707l2,.00586-.0127,5.01758A2.00471,2.00471,0,0,1,31.9873,38.01562Z"/>
  <path class="cls-2" d="M12,38H8a2.0026,2.0026,0,0,1-2-2V32H8v4h4V31h2v5A2.0026,2.0026,0,0,1,12,38Z"/>
  <path class="cls-2" d="M34.81249,15.583H33.28223a.99947.99947,0,0,0-.73633.32324l-.60785.6618-1.04743-3.66668A4.01837,4.01837,0,0,0,27.044,10H13.56934a4.01545,4.01545,0,0,0-3.84571,2.90137L8.65387,16.64471l-.67828-.73846a.99951.99951,0,0,0-.73633-.32324H5.708a2.7085,2.7085,0,0,0,0,5.417H7.40918l-.06445.22559a1.00029,1.00029,0,0,0,1.92382.54882l2.37891-8.32421A2.00625,2.00625,0,0,1,13.56934,12H27.044a2.0083,2.0083,0,0,1,1.92285,1.4502l2.37793,8.32421a1.00106,1.00106,0,0,0,.96093.72559,1.02894,1.02894,0,0,0,.27539-.03809,1.00077,1.00077,0,0,0,.6875-1.23632L33.2041,21h1.60839a2.7085,2.7085,0,1,0,0-5.417ZM5.708,19a.7085.7085,0,0,1,0-1.417H6.7998l1.2096,1.31671L7.98077,19Zm29.10448,0H32.63281l-.05053-.17676,1.1394-1.24023h1.09081a.7085.7085,0,1,1,0,1.417Z"/>
  <path class="cls-3" d="M35.37891,22.11523A5.46546,5.46546,0,0,0,31.043,20H9.57031a5.498,5.498,0,0,0-5.335,6.834l1.60156,6.40821A.99878.99878,0,0,0,6.80664,34h27a.99962.99962,0,0,0,.96973-.75781L36.37891,26.834A5.46639,5.46639,0,0,0,35.37891,22.11523ZM10.5,28A2.5,2.5,0,1,1,13,25.5,2.5,2.5,0,0,1,10.5,28Zm20,0A2.5,2.5,0,1,1,33,25.5,2.5,2.5,0,0,1,30.5,28Z"/>
  <path class="cls-2" d="M25.14648,29h-9a1,1,0,1,1,0-2h9a1,1,0,0,1,0,2Z"/>
  <path class="cls-2" d="M25.14648,32h-9a1,1,0,1,1,0-2h9a1,1,0,0,1,0,2Z"/>
</svg>
