<svg id="Layer_2" data-name="Layer 2" xmlns="http://www.w3.org/2000/svg" width="40" height="40" viewBox="0 0 40 40">
  <defs>
    <style>
      .cls-1 {
        fill: #eeeeef;
      }

      .cls-2 {
        fill: #ef3c3c;
      }

      .cls-3 {
        fill: #2b273c;
      }
    </style>
  </defs>
  <path class="cls-1" d="M37.88934,28.27686a5.31542,5.31542,0,0,0-6.51013-3.75867c-.11017.02954-.20514.08435-.31171.12036l-.44085-1.64539L34.65039,7.97632A4.7058,4.7058,0,0,0,31.32288,2.213l-.26807-.0719-3.00775,11.2251L25.03937,2.14111l-.26807.0719a4.70576,4.70576,0,0,0-3.32745,5.76331l4.02368,15.01684-.44086,1.64527c-.10657-.03589-.20147-.0907-.31164-.12024a5.31547,5.31547,0,1,0,3.33209,7.59668,5.314,5.314,0,0,0,9.84222-3.838ZM25.90643,30.34045a2.65777,2.65777,0,1,1-1.87933-3.25512A2.6577,2.6577,0,0,1,25.90643,30.34045Zm7.53638,1.87928a2.65776,2.65776,0,1,1,1.87933-3.25513A2.65776,2.65776,0,0,1,33.44281,32.21973Z"/>
  <polygon class="cls-2" points="5.716 19.276 5.562 15.808 13.559 11.191 18.742 11.651 18.774 11.738 5.716 19.276"/>
  <polygon class="cls-2" points="12.058 29 6 29 19.199 21.329 19.285 24.776 12.058 29"/>
  <path class="cls-3" d="M20.64648,28H20V12h.64648a1,1,0,0,0,0-2h-.72113A7.50649,7.50649,0,0,0,13.5,3.57446v-.551a1,1,0,0,0-2,0v.551A7.50649,7.50649,0,0,0,5.07465,10H4.5a1,1,0,0,0,0,2H5v2H2v2H5v8H2v2H5v2H4.5a1,1,0,0,0,0,2h.57465A7.50649,7.50649,0,0,0,11.5,36.42554v.551a1,1,0,0,0,2,0v-.551A7.50649,7.50649,0,0,0,19.92535,30h.72113a1,1,0,0,0,0-2ZM12.5,5.5A5.50626,5.50626,0,0,1,17.90442,10H7.09558A5.50626,5.50626,0,0,1,12.5,5.5ZM7,12H18v3.3197L7,21.67053V12Zm5.5,22.5A5.50626,5.50626,0,0,1,7.09558,30H17.90442A5.50626,5.50626,0,0,1,12.5,34.5ZM7,28V25.22778L18,18.877V28Z"/>
</svg>
