<svg width="40" height="40" viewBox="0 0 40 40" fill="none" xmlns="http://www.w3.org/2000/svg">
<path d="M34.3831 6H16.1678C14.8783 3.40973 12.2131 1.625 9.12298 1.625C6.03784 1.625 3.39447 3.41602 2.10291 6H8.24798L9.99798 9.5L8.24798 13H2.10291C3.82453 16.4443 7.94794 18.4797 12.3179 16.7425C14.0511 16.0535 15.4539 14.6902 16.2266 13H26V7H31V13H34.3831C36.3161 13 37.8831 11.433 37.8831 9.5C37.8831 7.56702 36.3161 6 34.3831 6H34.3831Z" fill="#EDECEC"/>
<path d="M32 18H30V8H27V14H25V7C25 6.44727 25.4473 6 26 6H31C31.5527 6 32 6.44727 32 7V18Z" fill="#2B273C"/>
<path d="M34 20V36H31V29C31 26.794 29.206 25 27 25C24.794 25 23 26.794 23 29V36H6V24.1231L18.4824 17.251C18.8018 17.0752 19 16.7393 19 16.375V10.5586H17V15.7842L4.51758 22.6562C4.19824 22.832 4 23.168 4 23.5322V37C4 37.5527 4.44727 38 5 38H35C35.5527 38 36 37.5527 36 37V20H34ZM25 36V29C25 27.8975 25.8975 27 27 27C28.1025 27 29 27.8975 29 29V36H25Z" fill="#2B273C"/>
<path d="M11 25C10.4473 25 10 25.4473 10 26V32C10 32.5527 10.4473 33 11 33H19C19.5527 33 20 32.5527 20 32V26C20 25.4473 19.5527 25 19 25H11ZM18 31H12V27H18V31Z" fill="#2B273C"/>
<path d="M37.501 18.2803L17.501 6.71484C17.1904 6.53515 16.8106 6.53613 16.5 6.71386C16.1904 6.89257 16 7.22265 16 7.58007V9.52734C16 9.8789 16.1846 10.2041 16.4863 10.3848L36.4863 22.3652C36.6445 22.46 36.8223 22.5078 37 22.5078C37.1699 22.5078 37.3398 22.4648 37.4932 22.3779C37.8066 22.2002 38 21.8682 38 21.5078V19.1455C38 18.7881 37.8096 18.459 37.501 18.2803V18.2803Z" fill="#FA4D4D"/>
<path d="M18.501 14.1006C18.1904 13.9209 17.8096 13.9209 17.501 14.0996L2.50098 22.7334C2.19141 22.9111 2 23.2422 2 23.5996V25.8975C2 26.2578 2.19336 26.5898 2.50684 26.7676C2.66016 26.8545 2.83008 26.8975 3 26.8975C3.17773 26.8975 3.35645 26.8496 3.51367 26.7549L18.5137 17.7647C18.8154 17.584 19 17.2588 19 16.9072V14.9658C19 14.6084 18.8096 14.2793 18.501 14.1006V14.1006Z" fill="#FA4D4D"/>
</svg>
