<svg xmlns="http://www.w3.org/2000/svg" width="40" height="40" viewBox="0 0 40 40">
  <g fill="none" fill-rule="evenodd">
    <path fill="#EEEEEF" fill-rule="nonzero" d="M34 3.99999996L4.99999996 3.99999996C3.89543046 3.99999996 2.99999996 4.89543046 2.99999996 5.99999996L2.99999996 13C2.99999996 14.1045695 3.89543046 15 4.99999996 15L12.52 15 16.3 5.83999996C16.4534036 5.46657446 16.8162981 5.22201511 17.22 5.21999996 17.6273435 5.21795981 17.9952126 5.46320588 18.15 5.83999996L21.92 15 34 15C35.1045695 15 36 14.1045695 36 13L36 5.99999996C36 4.89543046 35.1045695 3.99999996 34 3.99999996zM12.44 24.79L5.66999996 22 4.99999996 22C3.89543046 22 2.99999996 22.8954305 2.99999996 24L2.99999996 31C2.99999996 32.1045695 3.89543046 33 4.99999996 33L15.82 33 12.44 24.79zM22 24.79L18.62 33 22 33C23.1045695 33 24 32.1045695 24 31L24 24 22 24.79z"/>
    <path fill="#2B273C" fill-rule="nonzero" d="M17.22,34.78 L17.22,34.78 C16.8162981,34.7779849 16.4534036,34.5334255 16.3,34.16 L12.44,24.79 L3.05999996,20.92 C2.69124662,20.7629117 2.45191831,20.4008188 2.45191831,20 C2.45191831,19.5991812 2.69124662,19.2370883 3.05999996,19.08 L12.44,15.21 L16.3,5.83999996 C16.4534036,5.46657446 16.8162981,5.22201511 17.22,5.21998733 C17.6273435,5.21795981 17.9952126,5.46320588 18.15,5.83999996 L22,15.21 L31.37,19.08 C31.7387534,19.2370883 31.9780817,19.5991812 31.9780817,20 C31.9780817,20.4008188 31.7387534,20.7629117 31.37,20.92 L22,24.79 L18.14,34.16 C17.9865964,34.5334255 17.6237019,34.7779849 17.22,34.78 Z M6.06999997,20 L13.58,23.1 C13.828125,23.1992753 14.026189,23.3937382 14.13,23.64 L17.22,31.15 L20.32,23.64 C20.4214749,23.3956507 20.6156507,23.2014749 20.86,23.1 L28.38,20 L20.86,16.9 C20.6156507,16.7985251 20.4214749,16.6043493 20.32,16.36 L17.22,8.84999997 L14.13,16.36 C14.026189,16.6062618 13.828125,16.8007247 13.58,16.9 L6.06999997,20 Z"/>
    <path fill="#EF3C3C" fill-rule="nonzero" d="M26.37 9.07999997L29.53 10.38 30.83 13.54C30.9840889 13.9151171 31.349468 14.1600329 31.755 14.1600329 32.1605321 14.1600329 32.5259112 13.9151171 32.68 13.54L34 10.38 37.16 9.07999997C37.529505 8.92350078 37.769673 8.56128017 37.7700424 8.15999997 37.7737122 7.75508855 37.5328714 7.38790504 37.16 7.22999997L34 5.92999996 32.7 2.77999996C32.5459112 2.4048828 32.1805321 2.15996706 31.775 2.15996706 31.369468 2.15996706 31.0040889 2.4048828 30.85 2.77999996L29.55 5.92999996 26.39 7.22999997C26.0132059 7.38478734 25.7679599 7.75265644 25.7699874 8.15999997 25.768611 8.55888642 26.0044113 8.92044684 26.37 9.07999997zM37.14 31L34 29.7 32.7 26.54C32.5459112 26.1648829 32.1805321 25.9199671 31.775 25.9199671 31.369468 25.9199671 31.0040889 26.1648829 30.85 26.54L29.55 29.7 26.37 31C25.9965745 31.1534036 25.7520152 31.5162981 25.7499874 31.92 25.7479599 32.3273436 25.9932059 32.6952127 26.37 32.85L29.53 34.15 30.83 37.3C30.9840889 37.6751172 31.349468 37.9200329 31.755 37.9200329 32.1605321 37.9200329 32.5259112 37.6751172 32.68 37.3L34 34.15 37.16 32.85C37.5328714 32.692095 37.7737122 32.3249115 37.7700424 31.92 37.766325 31.5138481 37.5173502 31.1502658 37.14 31z"/>
  </g>
</svg>
