<svg id="Layer_2" data-name="Layer 2" xmlns="http://www.w3.org/2000/svg" width="40" height="40" viewBox="0 0 40 40">
  <defs>
    <style>
      .cls-1 {
        fill: #eeeeef;
      }

      .cls-2 {
        fill: #ef3c3c;
      }

      .cls-3 {
        fill: #2b273c;
      }
    </style>
  </defs>
  <path class="cls-1" d="M32.74786,8a3.57329,3.57329,0,0,0,.39325-1.08008,3.77742,3.77742,0,0,0-3.7124-4.4707c-2.73035,0-4.271,2.46728-5.04639,4.32605-.77539-1.85877-2.31616-4.32605-5.04638-4.32605a3.77742,3.77742,0,0,0-3.71289,4.4707A3.57426,3.57426,0,0,0,16.01636,8H11v7h2v1H27V31H37V15h1V8ZM19.47168,8a1.87228,1.87228,0,0,1-1.88086-1.43555,1.77883,1.77883,0,0,1,1.74512-2.11523c1.772,0,2.853,2.13965,3.373,3.55078ZM31.17334,6.56445A1.87228,1.87228,0,0,1,29.29248,8H26.05225c.5166-1.41113,1.59472-3.55078,3.37646-3.55078a1.77773,1.77773,0,0,1,1.74463,2.11523Z"/>
  <path class="cls-2" d="M22.80762,10.91309A3.70211,3.70211,0,0,0,19.96,9.58105c-2.65137,0-4.1593,2.37037-4.92633,4.184-.76691-1.81359-2.27484-4.184-4.92621-4.184a3.71246,3.71246,0,0,0-3.64795,4.39258A3.77573,3.77573,0,0,0,10.23975,17h4.481a.98594.98594,0,0,0,.31275-.07092A.98588.98588,0,0,0,15.34619,17h4.481a3.77419,3.77419,0,0,0,3.78027-3.02637A3.72453,3.72453,0,0,0,22.80762,10.91309ZM10.23975,15a1.8036,1.8036,0,0,1-1.8125-1.38184,1.7121,1.7121,0,0,1,1.68017-2.03711c1.70362,0,2.749,2.04688,3.25879,3.419Zm11.3999-1.38184A1.80282,1.80282,0,0,1,19.82715,15h-3.1294c.50635-1.37207,1.54932-3.419,3.26221-3.419a1.71211,1.71211,0,0,1,1.67969,2.03711Z"/>
  <path class="cls-2" d="M27,20H4v2H9.07721L7.33105,28.5166a.50006.50006,0,0,0,.57764.6211l2.92334-.56348,2.09424,1.90234a.5001.5001,0,0,0,.81885-.24023L15.5,23.68713l1.75488,6.5492a.49985.49985,0,0,0,.81885.24023L20.168,28.57422l2.92334.56348a.50006.50006,0,0,0,.57764-.6211L21.92279,22H27Z"/>
  <path class="cls-3" d="M25.58984,38H5.41016A2.41271,2.41271,0,0,1,3,35.58984V16a.99974.99974,0,0,1,1-1H27a.99974.99974,0,0,1,1,1V35.58984A2.41271,2.41271,0,0,1,25.58984,38ZM5,17V35.58984A.41042.41042,0,0,0,5.41016,36H25.58984A.41042.41042,0,0,0,26,35.58984V17Z"/>
</svg>
